HIERARCHY
ROOT Hips
{
 OFFSET 0.000000 0.000000 0.000000
 CHANNELS 6 Xposition Yposition Zposition Yrotation Xrotation Zrotation
 JOINT Chest
 {
  OFFSET 0.000000 9.585900 0.002600
  CHANNELS 3 Yrotation Xrotation Zrotation
  JOINT Chest2
  {
   OFFSET 0.000000 9.601200 -0.005300
   CHANNELS 3 Yrotation Xrotation Zrotation
   JOINT Chest3
   {
    OFFSET 0.000000 9.561800 0.000000
    CHANNELS 3 Yrotation Xrotation Zrotation
    JOINT Chest4
    {
     OFFSET 0.000000 9.552100 0.000000
     CHANNELS 3 Yrotation Xrotation Zrotation
     JOINT Neck
     {
      OFFSET 0.000000 14.453000 0.000000
      CHANNELS 3 Yrotation Xrotation Zrotation
      JOINT Head
      {
       OFFSET 0.000000 8.936500 -0.011300
       CHANNELS 3 Yrotation Xrotation Zrotation
       End Site
       {
        OFFSET 0.000000 17.073600 -0.006000
       }
      }
     }
     JOINT RightCollar
     {
      OFFSET -2.921100 9.558500 0.000000
      CHANNELS 3 Yrotation Xrotation Zrotation
      JOINT RightShoulder
      {
       OFFSET -13.519700 0.000000 0.000000
       CHANNELS 3 Yrotation Xrotation Zrotation
       JOINT RightElbow
       {
        OFFSET 0.000000 -29.696600 0.000000
        CHANNELS 3 Yrotation Xrotation Zrotation
        JOINT RightWrist
        {
         OFFSET 0.000000 -24.004700 0.000000
         CHANNELS 3 Yrotation Xrotation Zrotation
         End Site
         {
          OFFSET 0.000000 -17.728500 0.000000
         }
        }
       }
      }
     }
     JOINT LeftCollar
     {
      OFFSET 2.921100 9.558500 0.000000
      CHANNELS 3 Yrotation Xrotation Zrotation
      JOINT LeftShoulder
      {
       OFFSET 13.519700 0.000000 0.000000
       CHANNELS 3 Yrotation Xrotation Zrotation
       JOINT LeftElbow
       {
        OFFSET 0.000000 -29.696600 0.000000
        CHANNELS 3 Yrotation Xrotation Zrotation
        JOINT LeftWrist
        {
         OFFSET 0.000000 -24.004700 0.000000
         CHANNELS 3 Yrotation Xrotation Zrotation
         End Site
         {
          OFFSET 0.000000 -17.728500 0.000000
         }
        }
       }
      }
     }
    }
   }
  }
 }
 JOINT RightHip
 {
  OFFSET -7.771700 -0.012900 -0.001300
  CHANNELS 3 Yrotation Xrotation Zrotation
  JOINT RightKnee
  {
   OFFSET 0.000000 -40.869800 0.001200
   CHANNELS 3 Yrotation Xrotation Zrotation
   JOINT RightAnkle
   {
    OFFSET 0.000000 -39.717900 0.002100
    CHANNELS 3 Yrotation Xrotation Zrotation
    JOINT RightToe
    {
     OFFSET 0.000000 -4.965400 11.033500
     CHANNELS 3 Yrotation Xrotation Zrotation
     End Site
     {
      OFFSET 0.000000 -1.423100 5.872300
     }
    }
   }
  }
 }
 JOINT LeftHip
 {
  OFFSET 7.771700 -0.012900 -0.001300
  CHANNELS 3 Yrotation Xrotation Zrotation
  JOINT LeftKnee
  {
   OFFSET 0.000000 -40.869800 0.001200
   CHANNELS 3 Yrotation Xrotation Zrotation
   JOINT LeftAnkle
   {
    OFFSET 0.000000 -39.717900 0.002100
    CHANNELS 3 Yrotation Xrotation Zrotation
    JOINT LeftToe
    {
     OFFSET 0.000000 -4.965400 11.033500
     CHANNELS 3 Yrotation Xrotation Zrotation
     End Site
     {
      OFFSET 0.000000 -1.423100 5.872300
     }
    }
   }
  }
 }
}
MOTION
Frames: 11
Frame Time: 0.008333
-45.218426 50.646726 2.561268 164.038131 -6.150113 -1.055818 3.544983 6.024105 0.519965 0.136555 0.253024 -0.017518 0.240449 0.445393 -0.030366 3.123751 5.812154 -0.250142 2.758365 19.299284 0.038595 5.027093 0.073278 -0.782508 2.597441 6.505871 0.844707 -5.897829 -12.047354 -6.956627 26.352785 -80.896871 -7.816621 1.523556 1.501197 -27.168559 -5.606684 3.198201 -0.065465 19.522159 -6.143354 0.332704 -2.201395 -84.066163 -17.591615 -1.661854 9.184217 9.508605 -5.002526 -74.197953 0.802387 -115.539557 81.964671 -114.340579 -2.312309 -14.729674 0.672651 -0.322592 0.797744 -0.147501 -16.212139 -77.573706 31.756322 112.520880 79.528413 109.012967 -16.397554 -21.605446 0.277946 -0.269699 -1.011337 -0.138759
-45.217740 50.646973 2.561171 164.037533 -6.158604 -1.056793 3.546607 6.032402 0.519747 0.136477 0.253313 -0.017490 0.238557 0.443728 -0.028259 3.123814 5.815441 -0.250107 2.758722 19.305123 0.036618 5.030580 0.079612 -0.781924 2.597890 6.501016 0.839270 -5.895340 -12.051953 -6.960152 26.345587 -80.891100 -7.798229 1.526298 1.502331 -27.169363 -5.598623 3.186848 -0.066821 19.520846 -6.144142 0.331728 -2.132875 -84.069561 -17.661808 -1.662675 9.190789 9.506588 -5.001730 -74.189211 0.800907 -115.541927 81.966614 -114.340053 -2.312845 -14.727894 0.672391 -0.322208 0.796292 -0.149185 -16.229227 -77.561189 31.772369 112.536906 79.528904 109.021627 -16.374147 -21.619890 0.275799 -0.265062 -1.000285 -0.139773
-45.216907 50.647255 2.561036 164.040585 -6.167381 -1.059118 3.545139 6.041471 0.517650 0.136315 0.253600 -0.017463 0.239077 0.445095 -0.027194 3.121617 5.815321 -0.246338 2.756765 19.311093 0.031930 5.038792 0.083334 -0.783706 2.598606 6.496282 0.832896 -5.895115 -12.052932 -6.958250 26.364173 -80.886633 -7.804448 1.530547 1.502380 -27.142570 -5.596572 3.180039 -0.069464 19.521662 -6.148452 0.329882 -2.052428 -84.079687 -17.740678 -1.668069 9.210036 9.503411 -5.010022 -74.176932 0.803351 -115.536403 81.971238 -114.332226 -2.309150 -14.732073 0.674090 -0.326171 0.800101 -0.153864 -16.265261 -77.546629 31.808542 112.554256 79.531452 109.029786 -16.379220 -21.628761 0.277225 -0.269780 -1.002493 -0.135408
-45.215345 50.647614 2.560760 164.042700 -6.178162 -1.065914 3.545585 6.051915 0.520549 0.136401 0.253054 -0.018985 0.236973 0.446425 -0.024220 3.111595 5.824651 -0.255218 2.766047 19.306227 0.036668 5.047958 0.089156 -0.784682 2.611221 6.479683 0.813617 -5.900136 -12.047939 -6.932088 26.380884 -80.882856 -7.810317 1.525629 1.504811 -27.147328 -5.586739 3.162802 -0.060698 19.523488 -6.145122 0.331818 -2.063110 -84.082532 -17.731639 -1.655523 9.206845 9.508532 -5.039561 -74.163942 0.830417 -115.534661 81.975386 -114.326085 -2.318019 -14.727609 0.667579 -0.318495 0.797928 -0.148845 -16.293709 -77.531918 31.843867 112.570006 79.537762 109.043356 -16.407816 -21.633770 0.282904 -0.285723 -1.006745 -0.134652
-45.215992 50.647945 2.559897 164.041240 -6.188750 -1.059693 3.549670 6.061024 0.510242 0.136125 0.253076 -0.019009 0.236686 0.448066 -0.024958 3.106754 5.825053 -0.254503 2.765541 19.308289 0.036183 5.050631 0.097274 -0.785887 2.612356 6.473085 0.807588 -5.905263 -12.049871 -6.928249 26.345365 -80.878476 -7.762014 1.524217 1.509245 -27.148781 -5.583807 3.160425 -0.054830 19.525655 -6.144449 0.326579 -2.103691 -84.082793 -17.693131 -1.662252 9.199809 9.489260 -5.017276 -74.154227 0.808417 -115.540914 81.977442 -114.331624 -2.325108 -14.726334 0.667436 -0.313298 0.797518 -0.148088 -16.216778 -77.526869 31.780681 112.574981 79.543921 109.054672 -16.456652 -21.626345 0.295922 -0.285234 -1.018723 -0.132981
-45.217692 50.647928 2.562522 164.055611 -6.177144 -1.056197 3.538039 6.048032 0.499896 0.135454 0.253645 -0.017478 0.237907 0.445558 -0.030209 3.102848 5.828477 -0.247339 2.762290 19.308761 0.033950 5.047648 0.108731 -0.789996 2.609684 6.468029 0.800464 -5.911625 -12.051911 -6.934454 26.275607 -80.877740 -7.676570 1.529315 1.513454 -27.147892 -5.587785 3.154055 -0.058511 19.532174 -6.143862 0.324043 -2.186485 -84.080157 -17.614232 -1.670262 9.193820 9.476379 -5.017664 -74.166031 0.793304 -115.541447 81.980004 -114.330201 -2.330079 -14.726009 0.663338 -0.310005 0.798767 -0.145001 -16.205958 -77.541391 31.765044 112.488940 79.527364 108.963943 -16.503104 -21.604196 0.309489 -0.330739 -1.031307 -0.140015
-45.217075 50.648310 2.562744 164.069160 -6.183183 -1.063542 3.526661 6.053727 0.505087 0.133726 0.253990 -0.018927 0.239161 0.444950 -0.028733 3.097862 5.825832 -0.248564 2.761500 19.311886 0.032830 5.049473 0.108707 -0.792198 2.611367 6.469327 0.792703 -5.914282 -12.046079 -6.936258 26.254818 -80.880400 -7.652002 1.530174 1.511218 -27.146906 -5.582130 3.151378 -0.061814 19.517579 -6.142193 0.321887 -2.264839 -84.083255 -17.538028 -1.671032 9.196774 9.482686 -5.039541 -74.156542 0.801078 -115.542583 81.984424 -114.328619 -2.322170 -14.728396 0.664078 -0.319205 0.800164 -0.147071 -16.221587 -77.536949 31.775102 112.461830 79.526116 108.935573 -16.509295 -21.582611 0.310324 -0.242684 -1.043649 -0.128938
-45.213994 50.648751 2.564431 164.071563 -6.184669 -1.087952 3.526464 6.053992 0.528146 0.130733 0.255623 -0.020553 0.241937 0.443187 -0.027177 3.093495 5.825800 -0.250524 2.760145 19.313004 0.031914 5.050225 0.105718 -0.796052 2.615957 6.468455 0.784654 -5.917750 -12.038875 -6.939042 26.223817 -80.880370 -7.614386 1.526363 1.501955 -27.151287 -5.575575 3.148204 -0.062335 19.506926 -6.145131 0.322138 -2.281890 -84.086279 -17.519127 -1.674211 9.202553 9.482228 -5.125050 -74.148148 0.888512 -115.488317 81.982710 -114.273398 -2.308851 -14.725749 0.665534 -0.327796 0.801735 -0.150221 -16.306970 -77.532063 31.863686 112.425682 79.519255 108.894388 -16.456103 -21.564127 0.296796 -0.276927 -1.046848 -0.127939
-45.215658 50.648942 2.567293 164.090933 -6.170439 -1.090647 3.501957 6.041551 0.523889 0.134303 0.257969 -0.020411 0.237933 0.441086 -0.027144 3.086555 5.832991 -0.252432 2.767788 19.306313 0.030832 5.049964 0.100617 -0.800433 2.627369 6.456918 0.776372 -5.922109 -12.029680 -6.940936 26.297295 -80.882014 -7.671326 1.518321 1.498704 -27.151905 -5.559773 3.136128 -0.061377 19.494069 -6.151093 0.323132 -2.273855 -84.089358 -17.526716 -1.685133 9.202848 9.452769 -5.155042 -74.159595 0.899910 -115.456651 81.980052 -114.243123 -2.306227 -14.729084 0.666892 -0.327815 0.806995 -0.150008 -16.318563 -77.548565 31.864148 112.322106 79.505482 108.787047 -16.476773 -21.528821 0.297347 -0.297400 -1.052541 -0.126492
-45.219886 50.649178 2.569357 164.130611 -6.155162 -1.081465 3.461811 6.035901 0.503206 0.134872 0.253590 -0.017377 0.233774 0.441557 -0.025962 3.088147 5.834899 -0.255679 2.768376 19.301349 0.033201 5.047780 0.095255 -0.805490 2.626237 6.445992 0.767019 -5.924344 -12.020693 -6.933837 26.315223 -80.884247 -7.684010 1.513470 1.501148 -27.147822 -5.563670 3.113499 -0.064942 19.489762 -6.148060 0.332840 -2.286615 -84.083121 -17.509045 -1.681251 9.201804 9.446391 -5.154731 -74.174207 0.858373 -115.484207 81.978787 -114.273792 -2.311717 -14.738829 0.673004 -0.324300 0.813070 -0.150926 -16.296502 -77.570986 31.807957 112.205375 79.491133 108.665843 -16.508658 -21.474368 0.292118 -0.307513 -1.078800 -0.114502
-45.221764 50.649954 2.567824 164.142276 -6.163903 -1.079185 3.454089 6.048461 0.493936 0.132003 0.251471 -0.012104 0.236632 0.445574 -0.030190 3.087047 5.835010 -0.259305 2.767496 19.296703 0.039417 5.047489 0.091316 -0.806007 2.623536 6.437076 0.768246 -5.927294 -12.013612 -6.931740 26.309445 -80.889182 -7.674499 1.521070 1.506057 -27.134289 -5.567059 3.104826 -0.056783 19.485022 -6.153164 0.331564 -2.290332 -84.076775 -17.502038 -1.679052 9.201410 9.445039 -5.149482 -74.164806 0.843919 -115.502877 81.975953 -114.293804 -2.320100 -14.743850 0.674648 -0.317915 0.814565 -0.147975 -16.250319 -77.566432 31.754557 112.188985 79.493674 108.651404 -16.512897 -21.450585 0.287535 -0.330144 -1.089628 -0.109687
